<svg xmlns="http://www.w3.org/2000/svg">
    <defs>
        <symbol id="home" viewBox="0 0 36.116 39.795">
            <g id="Grupo_60" data-name="Grupo 60" transform="translate(-40.884 -159.705)">
                <path id="Trazado_10" data-name="Trazado 10" d="M3,14.878,19.558,2,36.116,14.878V35.116a3.68,3.68,0,0,1-3.68,3.68H6.68A3.68,3.68,0,0,1,3,35.116Z" transform="translate(39.384 159.205)" fill="none" stroke="#fff" stroke-linecap="round" stroke-linejoin="round" stroke-width="3"/>
                <path id="Trazado_11" data-name="Trazado 11" d="M9,30.4V12H20.039V30.4" transform="translate(44.423 167.602)" fill="none" stroke="#fff" stroke-linecap="round" stroke-linejoin="round" stroke-width="3"/>
            </g>
        </symbol>
        <symbol id="star" viewBox="0 0 38.858 37.101">
            <path id="star" d="M19.929,2l5.54,11.223,12.389,1.811-8.964,8.731L31.009,36.1l-11.08-5.827L8.849,36.1l2.116-12.335L2,15.034l12.389-1.811Z" transform="translate(-0.5 -0.5)" fill="none" stroke="#fff" stroke-linecap="round" stroke-linejoin="round" stroke-width="3"/>
        </symbol>
        <symbol id="msg" viewBox="0 0 33.28 33.28">
            <path id="message-square" d="M33.28,23.187a3.364,3.364,0,0,1-3.364,3.364H9.729L3,33.28V6.364A3.364,3.364,0,0,1,6.364,3H29.916A3.364,3.364,0,0,1,33.28,6.364Z" transform="translate(-1.5 -1.5)" fill="none" stroke="#fff" stroke-linecap="round" stroke-linejoin="round" stroke-width="3"/>
        </symbol>
        <symbol id="graf" viewBox="0 0 23 34">
            <g id="Grupo_61" data-name="Grupo 61" transform="translate(-48.5 -437.5)">
                <line id="Línea_23" data-name="Línea 23" y1="19" transform="translate(70 451)" fill="none" stroke="#fff" stroke-linecap="round" stroke-linejoin="round" stroke-width="3"/>
                <line id="Línea_24" data-name="Línea 24" y1="31" transform="translate(60 439)" fill="none" stroke="#fff" stroke-linecap="round" stroke-linejoin="round" stroke-width="3"/>
                <line id="Línea_25" data-name="Línea 25" y1="12" transform="translate(50 458)" fill="none" stroke="#fff" stroke-linecap="round" stroke-linejoin="round" stroke-width="3"/>
            </g>
        </symbol>
        <symbol id="config" viewBox="0 0 41.147 41.147">
            <g id="settings" transform="translate(0.5 0.5)">
                <circle id="Elipse_21" data-name="Elipse 21" cx="5" cy="5" r="5" transform="translate(15 15)" fill="none" stroke="#fff" stroke-linecap="round" stroke-linejoin="round" stroke-width="3"/>
                <path id="Trazado_12" data-name="Trazado 12" d="M32.9,25.275a2.861,2.861,0,0,0,.572,3.156l.1.1a3.47,3.47,0,1,1-4.907,4.907l-.1-.1a2.884,2.884,0,0,0-4.89,2.046v.295a3.468,3.468,0,1,1-6.936,0v-.156A2.861,2.861,0,0,0,14.872,32.9a2.861,2.861,0,0,0-3.156.572l-.1.1A3.47,3.47,0,1,1,6.7,28.674l.1-.1a2.884,2.884,0,0,0-2.046-4.89H4.468a3.468,3.468,0,1,1,0-6.936h.156a2.861,2.861,0,0,0,2.618-1.873,2.861,2.861,0,0,0-.572-3.156l-.1-.1A3.47,3.47,0,1,1,11.473,6.7l.1.1a2.861,2.861,0,0,0,3.156.572h.139a2.861,2.861,0,0,0,1.734-2.618V4.468a3.468,3.468,0,1,1,6.936,0v.156a2.884,2.884,0,0,0,4.89,2.046l.1-.1a3.47,3.47,0,1,1,4.907,4.907l-.1.1a2.861,2.861,0,0,0-.572,3.156v.139a2.861,2.861,0,0,0,2.618,1.734h.295a3.468,3.468,0,1,1,0,6.936h-.156A2.861,2.861,0,0,0,32.9,25.275Z" transform="translate(0 0)" fill="none" stroke="#fff" stroke-linecap="round" stroke-linejoin="round" stroke-width="3"/>
            </g>
        </symbol>
        <symbol id="user" viewBox="0 0 80 80">
            <g id="Grupo_9" data-name="Grupo 9" transform="translate(-172 -244)">
                <circle id="Elipse_3" data-name="Elipse 3" cx="40" cy="40" r="40" transform="translate(172 244)" fill="#107acc"/>
                <circle id="Elipse_6" data-name="Elipse 6" cx="7" cy="7" r="7" transform="translate(223 244)" fill="#36ee62"/>
                <g id="user" transform="translate(186 259.875)">
                <path id="Trazado_2" data-name="Trazado 2" d="M46,30.75V25.5A10.5,10.5,0,0,0,35.5,15h-21A10.5,10.5,0,0,0,4,25.5v5.25" transform="translate(0 19.5)" fill="none" stroke="#fff" stroke-linecap="round" stroke-linejoin="round" stroke-width="4"/>
                <circle id="Elipse_8" data-name="Elipse 8" cx="10.5" cy="10.5" r="10.5" transform="translate(15.118 3)" fill="none" stroke="#fff" stroke-linecap="round" stroke-linejoin="round" stroke-width="4"/>
                </g>
            </g>
        </symbol>
         <symbol id="burgermenu"  viewBox="0 0 23 16">
            <g id="menu" transform="translate(-2 -5)">
                <line id="Línea_3" data-name="Línea 3" x2="21" transform="translate(3 13)" fill="none" stroke="#888" stroke-linecap="round" stroke-linejoin="round" stroke-width="2"/>
                <line id="Línea_4" data-name="Línea 4" x2="21" transform="translate(3 6)" fill="none" stroke="#888" stroke-linecap="round" stroke-linejoin="round" stroke-width="2"/>
                <line id="Línea_5" data-name="Línea 5" x2="21" transform="translate(3 20)" fill="none" stroke="#888" stroke-linecap="round" stroke-linejoin="round" stroke-width="2"/>
            </g>
        </symbol>
         <symbol id="lupa" viewBox="0 0 23.764 23.764">
            <g id="search_1_" data-name="search (1)" transform="translate(-2 -2)">
                <circle id="Elipse_11" data-name="Elipse 11" cx="9.5" cy="9.5" r="9.5" transform="translate(3 3)" fill="none" stroke="#888" stroke-linecap="round" stroke-linejoin="round" stroke-width="2"/>
                <line id="Línea_2" data-name="Línea 2" x1="5.159" y1="5.159" transform="translate(19.19 19.19)" fill="none" stroke="#888" stroke-linecap="round" stroke-linejoin="round" stroke-width="2"/>
            </g>
        </symbol>
         <symbol id="layout" viewBox="0 0 23 23">
            <g id="layout" transform="translate(-2 -2)">
                <rect id="Rectángulo_16" data-name="Rectángulo 16" width="21" height="21" rx="2" transform="translate(3 3)" fill="none" stroke="#888" stroke-linecap="round" stroke-linejoin="round" stroke-width="2"/>
                <line id="Línea_6" data-name="Línea 6" x2="21" transform="translate(3 10)" fill="none" stroke="#888" stroke-linecap="round" stroke-linejoin="round" stroke-width="2"/>
                <line id="Línea_7" data-name="Línea 7" y1="14" transform="translate(10 10)" fill="none" stroke="#888" stroke-linecap="round" stroke-linejoin="round" stroke-width="2"/>
            </g>
        </symbol>
        <symbol id="userdisable"  viewBox="0 0 80 80">
            <g id="Grupo_62" data-name="Grupo 62" transform="translate(-176 -378)">
                <circle id="Elipse_3" data-name="Elipse 3" cx="40" cy="40" r="40" transform="translate(176 378)" fill="rgba(16,122,204,0.19)"/>
                <circle id="Elipse_6" data-name="Elipse 6" cx="7" cy="7" r="7" transform="translate(227 378)" fill="#36ee62"/>
                <g id="user" transform="translate(190 393.875)">
                <path id="Trazado_2" data-name="Trazado 2" d="M46,30.75V25.5A10.5,10.5,0,0,0,35.5,15h-21A10.5,10.5,0,0,0,4,25.5v5.25" transform="translate(0 19.5)" fill="none" stroke="#fff" stroke-linecap="round" stroke-linejoin="round" stroke-width="4"/>
                <circle id="Elipse_8" data-name="Elipse 8" cx="10.5" cy="10.5" r="10.5" transform="translate(15.118 3)" fill="none" stroke="#fff" stroke-linecap="round" stroke-linejoin="round" stroke-width="4"/>
                </g>
            </g>
        </symbol>
        <symbol id="userdisable1"  viewBox="0 0 80 80">
            <g id="Grupo_15" data-name="Grupo 15" transform="translate(-168 -646)">
                <circle id="Elipse_3" data-name="Elipse 3" cx="40" cy="40" r="40" transform="translate(168 646)" fill="rgba(16,122,204,0.19)"/>
                <g id="user" transform="translate(182 661.875)">
                <path id="Trazado_2" data-name="Trazado 2" d="M46,30.75V25.5A10.5,10.5,0,0,0,35.5,15h-21A10.5,10.5,0,0,0,4,25.5v5.25" transform="translate(0 19.5)" fill="none" stroke="#fff" stroke-linecap="round" stroke-linejoin="round" stroke-width="4"/>
                <circle id="Elipse_8" data-name="Elipse 8" cx="10.5" cy="10.5" r="10.5" transform="translate(15.118 3)" fill="none" stroke="#fff" stroke-linecap="round" stroke-linejoin="round" stroke-width="4"/>
                </g>
            </g>
        </symbol>
        <symbol id="luna" viewBox="0 0 37.001 37.001">
             <path id="moon" d="M37.038,21.531A17.036,17.036,0,1,1,18.507,3,13.25,13.25,0,0,0,37.038,21.531Z" transform="translate(-1.537 -1.5)" fill="none" stroke="#fff" stroke-linecap="round" stroke-linejoin="round" stroke-width="3"/>
        </symbol>
        <symbol id="enviar" viewBox="0 0 22.414 22.414">
           <g id="send" transform="translate(-1 -0.586)">
                <line id="Línea_17" data-name="Línea 17" x1="11" y2="11" transform="translate(11 2)" fill="none" stroke="#fff" stroke-linecap="round" stroke-linejoin="round" stroke-width="2"/>
                <path id="Trazado_3" data-name="Trazado 3" d="M22,2,15,22l-4-9L2,9Z" fill="none" stroke="#fff" stroke-linecap="round" stroke-linejoin="round" stroke-width="2"/>
            </g>
        </symbol>
        <symbol id="adjuntar"  viewBox="0 0 21.853 22.611">
          <path id="paperclip" d="M21.44,11.05l-9.19,9.19a6,6,0,1,1-8.49-8.49l9.19-9.19a4,4,0,1,1,5.66,5.66l-9.2,9.19a2,2,0,1,1-2.83-2.83L15.07,6.1" transform="translate(-1.002 -0.388)" fill="none" stroke="#888" stroke-linecap="round" stroke-linejoin="round" stroke-width="2"/>
        </symbol>
        <symbol id="smile"  viewBox="0 0 22 22">
            <g id="smile" transform="translate(-1 -1)">
                <circle id="Elipse_13" data-name="Elipse 13" cx="10" cy="10" r="10" transform="translate(2 2)" fill="none" stroke="#888" stroke-linecap="round" stroke-linejoin="round" stroke-width="2"/>
                <path id="Trazado_4" data-name="Trazado 4" d="M8,14a5.4,5.4,0,0,0,4,2,5.4,5.4,0,0,0,4-2" fill="none" stroke="#888" stroke-linecap="round" stroke-linejoin="round" stroke-width="2"/>
                <line id="Línea_18" data-name="Línea 18" x2="0.01" transform="translate(9 9)" fill="none" stroke="#888" stroke-linecap="round" stroke-linejoin="round" stroke-width="2"/>
                <line id="Línea_19" data-name="Línea 19" x2="0.01" transform="translate(15 9)" fill="none" stroke="#888" stroke-linecap="round" stroke-linejoin="round" stroke-width="2"/>
            </g>
        </symbol>
    </defs>
</svg>